HIERARCHY
ROOT Hips
{
	OFFSET 0.00000 0.00000 0.00000
	CHANNELS 6 Xposition Yposition Zposition Yrotation Zrotation Xrotation 
	JOINT Lumbar
	{
		OFFSET 0 0 0
		CHANNELS 3 Zrotation Xrotation Yrotation
		JOINT Neck
		{
			OFFSET 0.00 0.2701 0.00
			CHANNELS 3 Zrotation Xrotation Yrotation
			End Site
			{
				OFFSET 0.00 0.1379 0.00
			}
		}
		JOINT RightShoulder
		{
			OFFSET 0.0119 0.2289 0.1181
			CHANNELS 3 Zrotation Xrotation Yrotation
			JOINT RightElbow
			{
				OFFSET 0.00 -0.1475 0.00
				CHANNELS 2 Zrotation Yrotation
				JOINT RightWrist
				{
					OFFSET 0.00 -0.1605 0.00
					CHANNELS 2 Zrotation Xrotation
					End Site
					{
						OFFSET 0.0040 -0.1068 0.0006
					}
				}
			}
		}
		JOINT LeftShoulder
		{
			OFFSET 0.0119 0.2289 -0.1181
			CHANNELS 3 Zrotation Xrotation Yrotation
			JOINT LeftElbow
			{
				OFFSET 0.00 -0.1475 0.00
				CHANNELS 2 Zrotation Yrotation
				JOINT LeftWrist
				{
					OFFSET 0.00 -0.1605 0.00
					CHANNELS 2 Zrotation Xrotation
					End Site
					{
						OFFSET 0.0040 -0.1068 -0.0006
					}
				}
			}
		}
	}
	JOINT RightHip
	{
		OFFSET 0.0316 -0.0424 0.0458
		CHANNELS 3 Zrotation Xrotation Yrotation
		JOINT RightKnee
		{
			OFFSET 0.00 -0.2438 0.00
			CHANNELS 1 Zrotation
			JOINT RightAnkle
			{
				OFFSET 0.00 -0.2449 0.00
				CHANNELS 3 Zrotation Xrotation Yrotation
				End Site
				{
					OFFSET 0.1237 -0.0542 0.0051
				}
			}
		}
	}
	JOINT LeftHip
	{
		OFFSET 0.0316 -0.0424 -0.0458
		CHANNELS 3 Zrotation Xrotation Yrotation
		JOINT LeftKnee
		{
			OFFSET 0.00 -0.2438 0.00
			CHANNELS 1 Zrotation
			JOINT LeftAnkle
			{
				OFFSET 0.00 -0.2449 0.00
				CHANNELS 3 Zrotation Xrotation Yrotation
				End Site
				{
					OFFSET 0.1237 -0.0542 -0.0051
				}
			}
		}
	}
}
MOTION
Frames: 29
Frame Time: 0.02
-0 0.57926 0 183.26751 0 -5.66228 7.75503 6.46618 -3.14922 -16.03145 2.23968 0.85783 9.77054 -16.48405 6.3396 8.22516 82.30109 -0.56243 -2.55962 6.15838 11.36573 -10.81115 8.03665 -74.7102 -2.96564 2.16504 -4.02032 7.47482 3.61744 -6.07022 -11.84268 -1.43789 -14.30369 -8.08535 6.48684 18.66263 -1.62717 -4.80114 2.39622 6.11736
0.00013 0.57928 -9e-05 183.28507 0 -5.66153 7.75945 6.43269 -3.13091 -16.35649 2.21341 0.81579 10.18586 -16.48672 6.38755 8.27583 82.2951 -0.58284 -2.58981 6.72852 11.38292 -11.06852 8.09638 -74.62412 -2.96822 2.19895 -3.97179 7.40572 2.19491 -6.14272 -11.7531 -1.58263 -12.95183 -8.06582 6.49797 18.65125 -1.63504 -4.81434 2.38168 6.11143
0.00025 0.5793 -0.00019 183.30205 0 -5.66077 7.76391 6.39922 -3.11265 -16.68414 2.18761 0.77432 10.60514 -16.48996 6.43741 8.32675 82.28863 -0.60316 -2.6203 7.30234 11.3997 -11.32678 8.15645 -74.54102 -2.97113 2.23309 -3.92302 7.33738 0.78567 -6.21536 -11.66416 -1.72541 -11.61254 -8.04636 6.50908 18.64017 -1.64276 -4.8277 2.36728 6.10562
0.00038 0.57932 -0.00029 183.31699 0 -5.65999 7.76887 6.36556 -3.09393 -17.01828 2.16384 0.7344 11.03497 -16.49547 6.49331 8.37862 82.28001 -0.62317 -2.65188 7.88693 11.41457 -11.58797 8.21767 -74.46753 -2.97504 2.26794 -3.87348 7.27075 -0.59231 -6.28872 -11.57685 -1.86344 -10.30259 -8.02752 6.52004 18.63044 -1.64963 -4.84183 2.35344 6.09997
0.0005 0.57934 -0.00037 183.34288 0 -5.65935 7.77151 6.33295 -3.0771 -17.30945 2.12982 0.68588 11.39766 -16.48893 6.51473 8.4248 82.28258 -0.64463 -2.67718 8.40301 11.43897 -11.82983 8.27184 -74.34139 -2.97323 2.29838 -3.82883 7.19425 -2.14536 -6.35762 -11.48082 -2.0286 -8.82806 -8.006 6.53157 18.61387 -1.66059 -4.85185 2.33681 6.09318
0.00064 0.57936 -0.00049 183.34549 0 -5.65839 7.77886 6.29815 -3.05668 -17.69706 2.11719 0.65584 11.90965 -16.5079 6.61076 8.48343 82.2616 -0.66312 -2.71608 9.07125 11.44359 -12.11491 8.34154 -74.32792 -2.9838 2.33859 -3.77336 7.13925 -3.32016 -6.43633 -11.40338 -2.13489 -7.70927 -7.98977 6.54205 18.61156 -1.6632 -4.87055 2.32597 6.08898
0.00085 0.57939 -0.00069 183.28212 0 -5.65655 7.8014 6.25602 -3.02208 -18.32269 2.16812 0.67598 12.7992 -16.60027 6.90891 8.5755 82.17148 -0.67261 -2.7924 10.12875 11.38865 -12.51016 8.45216 -74.62596 -3.02791 2.40413 -3.68963 7.13944 -3.50243 -6.54144 -11.37657 -2.0879 -7.52222 -7.99155 6.54831 18.65219 -1.6394 -4.91457 2.33265 6.09084
0.00108 0.57943 -0.00093 183.19539 0 -5.65435 7.82816 6.21191 -2.98459 -19.05162 2.23978 0.71495 13.84686 -16.71789 7.28354 8.68047 82.05812 -0.67929 -2.88266 11.34672 11.31472 -12.95121 8.57901 -75.03751 -3.0847 2.48001 -3.59453 7.16193 -3.29612 -6.65674 -11.36857 -1.98043 -7.70076 -7.99798 6.55377 18.7067 -1.60786 -4.96714 2.34495 6.09554
0.00132 0.57946 -0.00115 183.12046 0 -5.65233 7.85177 6.16944 -2.95119 -19.75252 2.29926 0.7459 14.84595 -16.82226 7.62601 8.78021 81.95808 -0.68776 -2.96657 12.51283 11.25246 -13.37775 8.6998 -75.3979 -3.13616 2.55222 -3.50358 7.17721 -3.23052 -6.76787 -11.35248 -1.89364 -7.74819 -8.00015 6.56046 18.7525 -1.5819 -5.01496 2.35363 6.09967
0.0015 0.5795 -0.00135 183.04088 0 -5.65033 7.88119 6.1237 -2.90619 -20.37344 2.37086 0.77461 15.74663 -16.93442 7.95708 8.87703 81.84684 -0.69395 -3.05009 13.58997 11.17685 -13.77747 8.81481 -75.75847 -3.18578 2.61975 -3.4172 7.18092 -3.30537 -6.87679 -11.33469 -1.83274 -7.65873 -8.01164 6.56345 18.80811 -1.54688 -5.06641 2.36661 6.10072
0.0018 0.57953 -0.00161 182.96503 0 -5.64812 7.89877 6.08447 -2.88454 -21.18555 2.42156 0.81242 16.88988 -17.03596 8.33057 8.98329 81.75285 -0.70435 -3.13829 14.89042 11.12517 -14.24412 8.94598 -76.14311 -3.24228 2.69989 -3.31825 7.21307 -3.00909 -6.99301 -11.3246 -1.70712 -7.92757 -8.00451 6.57399 18.84699 -1.52935 -5.11233 2.37223 6.10888
0.0024 0.57956 -0.00198 182.90863 0 -5.64624 7.88855 6.0623 -2.92907 -22.4986 2.4146 0.87104 18.66286 -17.10564 8.79811 9.11007 81.71731 -0.72594 -3.23145 16.76818 11.13844 -14.88271 9.11552 -76.58869 -3.31449 2.80891 -3.19029 7.32652 -1.66363 -7.12458 -11.3339 -1.3864 -9.21518 -7.94745 6.60527 18.83262 -1.55826 -5.14111 2.35404 6.13592
0.00311 0.57959 -0.00239 182.8562 0 -5.644 7.86483 6.04701 -2.99691 -23.99976 2.38513 0.93812 20.67356 -17.16328 9.30648 9.24638 81.69916 -0.75213 -3.32974 18.86395 11.17732 -15.5871 9.30118 -77.05076 -3.39326 2.93093 -3.04951 7.46641 0.02119 -7.26354 -11.34981 -1.00799 -10.83014 -7.87095 6.64425 18.80156 -1.60577 -5.16403 2.32866 6.17005
0.00378 0.57961 -0.0028 182.7996 0 -5.64143 7.84384 6.0295 -3.05354 -25.41733 2.36234 1.00109 22.57792 -17.2238 9.79908 9.37984 81.66945 -0.77683 -3.42864 20.86152 11.20848 -16.26289 9.48097 -77.4903 -3.46909 3.04925 -2.9127 7.58865 1.47024 -7.40067 -11.36088 -0.67708 -12.21522 -7.8017 6.67991 18.78064 -1.64722 -5.18943 2.30794 6.20096
0.00442 0.57964 -0.00316 182.7519 0 -5.64105 7.83875 6.00811 -3.11307 -26.83494 2.35445 1.06575 24.48567 -17.29537 10.28274 9.50736 81.6536 -0.79862 -3.51548 22.86597 11.22319 -16.93608 9.65521 -77.99594 -3.54504 3.15855 -2.78337 7.73498 3.27055 -7.53183 -11.38032 -0.25618 -13.94893 -7.73955 6.71472 18.7497 -1.67821 -5.21572 2.28147 6.23188
0.00516 0.57967 -0.00362 182.68723 0 -5.63589 7.79554 5.99643 -3.17166 -28.29018 2.31092 1.12878 26.43446 -17.34171 10.7935 9.64951 81.61426 -0.82795 -3.62864 24.89953 11.27754 -17.62808 9.84456 -78.36801 -3.62231 3.28966 -2.63552 7.83773 4.42302 -7.67691 -11.38372 -0.00732 -15.03771 -7.65762 6.75322 18.73515 -1.73561 -5.23888 2.26528 6.26454
0.00614 0.57969 -0.00428 182.5723 0 -5.61854 7.66474 6.01033 -3.22587 -29.85047 2.16556 1.18417 28.49093 -17.31286 11.37048 9.82816 81.49775 -0.87397 -3.81149 27.01206 11.4433 -18.36964 10.0722 -78.35212 -3.69995 3.47706 -2.44018 7.80826 3.63 -7.85978 -11.34047 -0.26944 -14.19246 -7.52842 6.79942 18.7727 -1.86054 -5.25286 2.27845 6.29912
0.00722 0.57971 -0.00504 182.44088 0 -5.59619 7.49306 6.03371 -3.27764 -31.43246 1.98669 1.23775 30.56942 -17.26044 11.97261 10.02125 81.35857 -0.92793 -4.02072 29.13541 11.64662 -19.12503 10.31417 -78.20342 -3.77885 3.68593 -2.22658 7.73494 2.18475 -8.05613 -11.28091 -0.70302 -12.69855 -7.37939 6.84922 18.82667 -2.01158 -5.26426 2.30223 6.33532
0.00827 0.57973 -0.00576 182.31855 0 -5.57551 7.33099 6.05245 -3.32796 -32.9735 1.8289 1.29279 32.60315 -17.22431 12.562 10.2089 81.2352 -0.98036 -4.21919 31.21949 11.82746 -19.86491 10.54934 -78.12496 -3.85836 3.88561 -2.02107 7.68511 1.08478 -8.24553 -11.22921 -1.04395 -11.54785 -7.2378 6.89773 18.8713 -2.15124 -5.278 2.32175 6.37162
0.00927 0.57975 -0.00645 182.18899 0 -5.55739 7.20743 6.07277 -3.3898 -34.65382 1.64559 1.34544 34.79391 -17.16442 13.15861 10.39288 81.08932 -1.0245 -4.41343 33.45811 12.03203 -20.64623 10.78692 -78.00575 -3.93352 4.08389 -1.81608 7.62109 -0.20811 -8.43875 -11.17586 -1.44454 -10.2049 -7.1025 6.9449 18.92352 -2.28953 -5.2864 2.33906 6.405
0.01039 0.57977 -0.00723 182.07132 0 -5.53271 6.99272 6.09204 -3.42685 -36.04498 1.50783 1.40254 36.65734 -17.14835 13.74531 10.58691 80.98456 -1.08729 -4.62169 35.37227 12.19574 -21.34346 11.02192 -77.93925 -4.01747 4.28932 -1.60571 7.57596 -1.26017 -8.62704 -11.12199 -1.76295 -9.10336 -6.94924 6.9958 18.96376 -2.43661 -5.30565 2.36306 6.44431
0.01178 0.57979 -0.00825 181.98429 0 -5.4917 6.54766 6.1055 -3.39555 -36.64474 1.50381 1.47251 37.62863 -17.26142 14.3009 10.8129 81.0002 -1.20332 -4.87054 36.40461 12.23704 -21.80568 11.25227 -78.05404 -4.12952 4.51499 -1.38627 7.59285 -1.47621 -8.79861 -11.07062 -1.8075 -8.83084 -6.75427 7.05458 18.96903 -2.60204 -5.35316 2.40743 6.50323
0.01329 0.57982 -0.00936 181.91131 0 -5.44415 6.00977 6.11769 -3.33958 -36.94866 1.5472 1.54716 38.2644 -17.41938 14.84493 11.04701 81.05775 -1.33709 -5.13095 37.10494 12.23551 -22.18189 11.47823 -78.22594 -4.24956 4.74593 -1.16194 7.63026 -1.43161 -8.96445 -11.0194 -1.76457 -8.82124 -6.54113 7.11728 18.96105 -2.77553 -5.41217 2.4574 6.5673
0.01476 0.57984 -0.01044 181.83551 0 -5.3993 5.50755 6.13077 -3.29486 -37.38001 1.56885 1.61928 39.04251 -17.55483 15.3925 11.27229 81.09505 -1.46029 -5.38066 37.94628 12.25417 -22.59736 11.70234 -78.36922 -4.36325 4.9707 -0.93899 7.65873 -1.51513 -9.133 -10.96795 -1.7653 -8.68722 -6.33477 7.17914 18.95823 -2.94456 -5.46742 2.50182 6.62667
0.01618 0.57987 -0.01147 181.74261 0 -5.35557 5.03322 6.14269 -3.24902 -37.84528 1.58911 1.69221 39.86817 -17.69687 15.94837 11.51981 81.13632 -1.59445 -5.65454 38.83341 12.27256 -23.01453 11.94365 -78.51836 -4.48858 5.21239 -0.71869 7.68419 -1.5789 -9.30248 -10.91608 -1.75574 -8.5518 -6.13513 7.23701 18.96091 -3.1167 -5.51628 2.55911 6.69627
0.01774 0.57989 -0.01263 181.69072 0 -5.30786 4.47705 6.1568 -3.20078 -38.16503 1.62526 1.76561 40.51004 -17.83801 16.4837 11.72273 81.17998 -1.70977 -5.88018 39.54167 12.27897 -23.40517 12.14735 -78.67152 -4.59138 5.4195 -0.4923 7.72121 -1.61529 -9.46736 -10.86602 -1.74429 -8.48989 -5.91597 7.30426 18.94714 -3.28539 -5.58136 2.591 6.74548
0.0196 0.57992 -0.01407 181.73345 0 -5.25205 3.73606 6.17597 -3.14253 -38.19096 1.68255 1.83007 40.76598 -17.94995 16.96659 11.80074 81.21646 -1.76971 -5.97246 39.87472 12.27881 -23.76366 12.25299 -78.81453 -4.63136 5.53252 -0.24698 7.78661 -1.61891 -9.63057 -10.81535 -1.75034 -8.57452 -5.65948 7.3946 18.90423 -3.43053 -5.68713 2.54952 6.73977
0.02161 0.57994 -0.01563 181.8202 0 -5.19225 2.91215 6.19788 -3.08438 -38.07354 1.75637 1.89624 40.84087 -18.06237 17.42889 11.8336 81.25462 -1.80992 -6.01532 40.03205 12.2651 -24.09458 12.32006 -78.9616 -4.64811 5.61003 0.0038 7.86301 -1.60282 -9.78767 -10.76775 -1.75593 -8.72778 -5.3814 7.49453 18.8421 -3.57447 -5.80907 2.4826 6.71305
0.02356 0.57997 -0.01715 181.89647 0 -5.13345 2.11497 6.21899 -3.03247 -37.99865 1.83016 1.96801 40.97286 -18.18518 17.89941 11.88676 81.29452 -1.85843 -6.07875 40.24533 12.24658 -24.42487 12.40149 -79.11231 -4.67461 5.70179 0.24952 7.93345 -1.60857 -9.94094 -10.72238 -1.76063 -8.84521 -5.10588 7.5913 18.7809 -3.72617 -5.92449 2.42848 6.69392
